<svg width="13" height="14" viewBox="0 0 13 14" fill="none" xmlns="http://www.w3.org/2000/svg">
<path d="M12.0157 3.74604H9.48121C9.66305 3.60808 9.81925 3.47101 9.92819 3.34819C10.5738 2.62635 10.5738 1.45147 9.92819 0.729636C9.30097 0.02827 8.20674 0.0273799 7.57872 0.729636C7.23186 1.11681 6.30986 2.6931 6.43722 3.74604H6.37955C6.50611 2.6931 5.58491 1.11681 5.23805 0.729636C4.61003 0.0273799 3.5158 0.02827 2.88858 0.729636C2.24294 1.45147 2.24294 2.62635 2.88778 3.34819C2.99752 3.47101 3.15373 3.60808 3.33557 3.74604H0.801048C0.359671 3.74604 0 4.14568 0 4.6361V6.86125C0 7.1069 0.179435 7.30628 0.400524 7.30628H0.801048V12.6466C0.801048 13.137 1.16072 13.5367 1.6021 13.5367H11.2147C11.6561 13.5367 12.0157 13.137 12.0157 12.6466V7.30628H12.4162C12.6373 7.30628 12.8168 7.1069 12.8168 6.86125V4.6361C12.8168 4.14568 12.4571 3.74604 12.0157 3.74604ZM3.45652 1.35713C3.61914 1.17555 3.83462 1.07587 4.06372 1.07587C4.29202 1.07587 4.5075 1.17555 4.67011 1.35713C5.21002 1.96059 5.74672 3.50217 5.56008 3.71667C5.56008 3.71667 5.52643 3.74604 5.41188 3.74604C4.85836 3.74604 3.80178 3.10698 3.45652 2.7207C3.12088 2.34509 3.12088 1.73273 3.45652 1.35713ZM6.00786 12.6466H1.6021V7.30628H6.00786V12.6466ZM6.00786 6.41622H0.801048V4.6361H5.41188H6.00786V6.41622ZM8.14666 1.35713C8.47189 0.994873 9.03582 0.995763 9.36025 1.35713C9.69589 1.73273 9.69589 2.34509 9.36025 2.7207C9.015 3.10698 7.95841 3.74604 7.40489 3.74604C7.29034 3.74604 7.2567 3.71756 7.25589 3.71667C7.07005 3.50217 7.60675 1.96059 8.14666 1.35713ZM11.2147 12.6466H6.80891V7.30628H11.2147V12.6466ZM12.0157 6.41622H6.80891V4.6361H7.40489H12.0157V6.41622Z" fill="#09D8CC"/>
</svg>
