<svg width="22" height="24" viewBox="0 0 22 24" fill="none" xmlns="http://www.w3.org/2000/svg">
<path d="M21.8253 5.28646V0.679742C21.8253 0.463488 21.7196 0.257292 21.5486 0.131563C21.3726 0.00583337 21.1463 -0.0344 20.9401 0.0309792L7.21552 4.39127C6.93389 4.48179 6.74278 4.74331 6.74278 5.04003V9.65178V9.65681V18.4729C6.0236 17.9751 5.10327 17.7035 4.13767 17.7035C3.11675 17.7035 2.14612 18.0103 1.40683 18.5635C0.61222 19.1619 0.174683 19.9716 0.174683 20.8517C0.174683 21.7318 0.61222 22.5415 1.40683 23.14C2.14612 23.6932 3.11172 24 4.13767 24C5.16362 24 6.12922 23.6932 6.86851 23.14C7.66311 22.5415 8.10065 21.7318 8.10065 20.8517V10.1497L20.4674 6.21686V14.0925C19.7482 13.5947 18.8279 13.3231 17.8623 13.3231C16.8413 13.3231 15.8707 13.6299 15.1314 14.1831C14.3368 14.7815 13.8993 15.5912 13.8993 16.4713C13.8993 17.3514 14.3368 18.1611 15.1314 18.7596C15.8707 19.3128 16.8363 19.6196 17.8623 19.6196C18.8882 19.6196 19.8538 19.3128 20.5931 18.7596C21.3877 18.1611 21.8253 17.3514 21.8253 16.4713V5.29149C21.8253 5.28646 21.8253 5.28646 21.8253 5.28646ZM4.13767 22.6421C2.72447 22.6421 1.53256 21.8224 1.53256 20.8517C1.53256 19.8811 2.72447 19.0614 4.13767 19.0614C5.55086 19.0614 6.74278 19.8811 6.74278 20.8517C6.74278 21.8274 5.55086 22.6421 4.13767 22.6421ZM8.10065 8.72138V5.53289L20.4674 1.60511V4.7936L8.10065 8.72138ZM17.8673 18.2617C16.4541 18.2617 15.2622 17.442 15.2622 16.4713C15.2622 15.5007 16.4541 14.681 17.8673 14.681C19.2805 14.681 20.4724 15.5007 20.4724 16.4713C20.4674 17.442 19.2755 18.2617 17.8673 18.2617Z" fill="#09D8CC"/>
</svg>
