<svg width="23" height="24" viewBox="0 0 23 24" fill="none" xmlns="http://www.w3.org/2000/svg">
<path d="M22.1506 5.28646V0.679742C22.1506 0.463488 22.045 0.257292 21.874 0.131563C21.6979 0.00583337 21.4716 -0.0344 21.2654 0.0309792L7.54084 4.39127C7.2592 4.48179 7.06809 4.74331 7.06809 5.04003V9.65178V9.65681V18.4729C6.34892 17.9751 5.42858 17.7035 4.46298 17.7035C3.44206 17.7035 2.47143 18.0103 1.73215 18.5635C0.937538 19.1619 0.5 19.9716 0.5 20.8517C0.5 21.7318 0.937538 22.5415 1.73215 23.14C2.47143 23.6932 3.43703 24 4.46298 24C5.48893 24 6.45454 23.6932 7.19382 23.14C7.98843 22.5415 8.42597 21.7318 8.42597 20.8517V10.1497L20.7927 6.21686V14.0925C20.0735 13.5947 19.1532 13.3231 18.1876 13.3231C17.1667 13.3231 16.196 13.6299 15.4567 14.1831C14.6621 14.7815 14.2246 15.5912 14.2246 16.4713C14.2246 17.3514 14.6621 18.1611 15.4567 18.7596C16.196 19.3128 17.1616 19.6196 18.1876 19.6196C19.2135 19.6196 20.1791 19.3128 20.9184 18.7596C21.713 18.1611 22.1506 17.3514 22.1506 16.4713V5.29149C22.1506 5.28646 22.1506 5.28646 22.1506 5.28646ZM4.46298 22.6421C3.04979 22.6421 1.85788 21.8224 1.85788 20.8517C1.85788 19.8811 3.04979 19.0614 4.46298 19.0614C5.87618 19.0614 7.06809 19.8811 7.06809 20.8517C7.06809 21.8274 5.87618 22.6421 4.46298 22.6421ZM8.42597 8.72138V5.53289L20.7927 1.60511V4.7936L8.42597 8.72138ZM18.1926 18.2617C16.7794 18.2617 15.5875 17.442 15.5875 16.4713C15.5875 15.5007 16.7794 14.681 18.1926 14.681C19.6058 14.681 20.7977 15.5007 20.7977 16.4713C20.7927 17.442 19.6008 18.2617 18.1926 18.2617Z" fill="white" fill-opacity="0.5"/>
</svg>
