<svg width="141" height="24" viewBox="0 0 141 24" fill="none" xmlns="http://www.w3.org/2000/svg">
<path d="M0 0.836853V21.8795L8.97748 16.7765V5.93988L0 0.836853Z" fill="#09D8CC"/>
<path d="M27.5944 11.3392L8.96545 0.170349V5.92424L17.9967 11.3392L8.96545 16.7541V22.5089L27.5944 11.3392Z" fill="#09D8CC"/>
<path fill-rule="evenodd" clip-rule="evenodd" d="M135.526 20.9089C135.408 20.8754 135.283 20.8168 135.149 20.733L134.319 23.6482C134.604 23.7654 134.914 23.8492 135.249 23.8995C135.584 23.9665 135.961 24 136.38 24C136.933 24 137.452 23.9162 137.938 23.7487C138.424 23.5979 138.851 23.3466 139.22 22.9948C139.589 22.6429 139.882 22.1822 140.1 21.6126C140.317 21.0597 140.426 20.3811 140.426 19.577V6.00628H137.134V19.4764C137.134 20.4649 136.757 20.9592 136.003 20.9592C135.819 20.9592 135.66 20.9424 135.526 20.9089ZM137.938 4.0712C138.206 4.17173 138.483 4.22199 138.768 4.22199C139.354 4.22199 139.857 4.02094 140.275 3.61885C140.694 3.2 140.904 2.69738 140.904 2.11099C140.904 1.52461 140.694 1.03037 140.275 0.628272C139.857 0.209424 139.354 0 138.768 0C138.483 0 138.206 0.0586385 137.938 0.175915C137.687 0.27644 137.461 0.427225 137.26 0.628272C137.075 0.812566 136.925 1.03037 136.807 1.28168C136.707 1.53298 136.657 1.80942 136.657 2.11099C136.657 2.41257 136.707 2.68901 136.807 2.94031C136.925 3.19162 137.075 3.4178 137.26 3.61885C137.461 3.80314 137.687 3.95393 137.938 4.0712ZM131.037 16.8377H130.836C130.534 17.3571 130.065 17.801 129.429 18.1696C128.792 18.5382 128.005 18.7225 127.066 18.7225C126.279 18.7225 125.525 18.5633 124.805 18.245C124.101 17.9099 123.473 17.4576 122.92 16.888C122.384 16.3016 121.956 15.6063 121.638 14.8021C121.32 13.9979 121.161 13.1183 121.161 12.1634C121.161 11.2084 121.32 10.3288 121.638 9.52461C121.956 8.72042 122.384 8.03351 122.92 7.46387C123.473 6.87749 124.101 6.42513 124.805 6.10681C125.525 5.77173 126.279 5.60419 127.066 5.60419C128.005 5.60419 128.792 5.78848 129.429 6.15707C130.065 6.52565 130.534 6.96963 130.836 7.489H131.037L130.836 5.72984V0.326702H134.128V18.3204H131.037V16.8377ZM127.745 15.6817C128.181 15.6817 128.591 15.6063 128.976 15.4555C129.378 15.288 129.73 15.0534 130.032 14.7518C130.333 14.4503 130.576 14.0817 130.761 13.6461C130.945 13.2105 131.037 12.7162 131.037 12.1634C131.037 11.6105 130.945 11.1162 130.761 10.6806C130.576 10.245 130.333 9.87644 130.032 9.57487C129.73 9.2733 129.378 9.04712 128.976 8.89633C128.591 8.72879 128.181 8.64503 127.745 8.64503C127.309 8.64503 126.891 8.72879 126.488 8.89633C126.103 9.06387 125.76 9.29843 125.458 9.6C125.156 9.90157 124.914 10.2702 124.729 10.7058C124.545 11.1414 124.453 11.6272 124.453 12.1634C124.453 12.6995 124.545 13.1853 124.729 13.6209C124.914 14.0565 125.156 14.4251 125.458 14.7267C125.76 15.0283 126.103 15.2628 126.488 15.4304C126.891 15.5979 127.309 15.6817 127.745 15.6817ZM106.386 8.82094H104.224V6.00628H106.386V2.23665H109.678V6.00628H112.694V8.82094H109.678V13.5958C109.678 13.8806 109.703 14.1487 109.753 14.4C109.82 14.6346 109.938 14.8356 110.105 15.0031C110.34 15.2712 110.675 15.4052 111.11 15.4052C111.395 15.4052 111.621 15.3801 111.789 15.3298C111.956 15.2628 112.116 15.1791 112.266 15.0785L113.196 17.9686C112.811 18.1529 112.392 18.2869 111.94 18.3707C111.504 18.4712 111.018 18.5215 110.482 18.5215C109.862 18.5215 109.301 18.4293 108.798 18.245C108.312 18.044 107.902 17.7759 107.567 17.4408C106.779 16.6869 106.386 15.6147 106.386 14.2241V8.82094ZM53.7325 6.00628H50.6414V23.7487H53.9336V18.5969L53.7325 16.8377H53.9336C54.2352 17.3571 54.7043 17.801 55.3409 18.1696C55.9776 18.5382 56.765 18.7225 57.7032 18.7225C58.4907 18.7225 59.2362 18.5633 59.9399 18.245C60.6603 17.9099 61.2886 17.4576 61.8247 16.888C62.3776 16.3016 62.8132 15.6063 63.1315 14.8021C63.4498 13.9979 63.609 13.1183 63.609 12.1634C63.609 11.2084 63.4498 10.3288 63.1315 9.52461C62.8132 8.72042 62.3776 8.03351 61.8247 7.46387C61.2886 6.87749 60.6603 6.42513 59.9399 6.10681C59.2362 5.77173 58.4907 5.60419 57.7032 5.60419C56.765 5.60419 55.9776 5.78848 55.3409 6.15707C54.7043 6.52565 54.2352 6.96963 53.9336 7.489H53.7325V6.00628ZM58.2561 15.4304C57.8708 15.5979 57.4603 15.6817 57.0247 15.6817C56.5891 15.6817 56.1702 15.6063 55.7681 15.4555C55.3828 15.288 55.0393 15.0534 54.7378 14.7518C54.4362 14.4503 54.1933 14.0817 54.009 13.6461C53.8247 13.2105 53.7325 12.7162 53.7325 12.1634C53.7325 11.6105 53.8247 11.1162 54.009 10.6806C54.1933 10.245 54.4362 9.87644 54.7378 9.57487C55.0393 9.2733 55.3828 9.04712 55.7681 8.89633C56.1702 8.72879 56.5891 8.64503 57.0247 8.64503C57.4603 8.64503 57.8708 8.72879 58.2561 8.89633C58.6582 9.06387 59.01 9.29843 59.3116 9.6C59.6132 9.90157 59.8561 10.2702 60.0404 10.7058C60.2247 11.1414 60.3168 11.6272 60.3168 12.1634C60.3168 12.6995 60.2247 13.1853 60.0404 13.6209C59.8561 14.0565 59.6132 14.4251 59.3116 14.7267C59.01 15.0283 58.6582 15.2628 58.2561 15.4304ZM44.6297 16.712H44.8307V18.3204H47.9218V6.00628H44.6297V12.0377C44.6297 12.5403 44.5626 13.0178 44.4286 13.4702C44.3113 13.9058 44.127 14.2911 43.8757 14.6262C43.6412 14.9445 43.348 15.2042 42.9962 15.4052C42.6611 15.5895 42.2674 15.6817 41.815 15.6817C41.0611 15.6817 40.4831 15.4722 40.081 15.0534C39.6956 14.6178 39.503 13.956 39.503 13.0681V6.00628H36.2108V13.4702C36.2108 15.0618 36.5878 16.3351 37.3417 17.2901C38.1124 18.245 39.2768 18.7225 40.8349 18.7225C41.6726 18.7225 42.4181 18.5466 43.0715 18.1948C43.725 17.8262 44.2443 17.3319 44.6297 16.712ZM68.6809 7.61466H68.8819C69.2673 6.99476 69.7867 6.5089 70.4401 6.15707C71.0935 5.78848 71.839 5.60419 72.6767 5.60419C73.4474 5.60419 74.1259 5.72984 74.7123 5.98115C75.2987 6.23246 75.7762 6.59267 76.1448 7.06178C76.5301 7.51414 76.8149 8.06701 76.9992 8.72042C77.2003 9.35707 77.3008 10.0691 77.3008 10.8565V18.3204H74.0086V11.2586C74.0086 10.3707 73.8076 9.71728 73.4055 9.29843C73.0202 8.86283 72.4505 8.64503 71.6966 8.64503C71.2443 8.64503 70.8422 8.74555 70.4903 8.9466C70.1552 9.13089 69.8621 9.39058 69.6107 9.72565C69.3762 10.044 69.1919 10.4293 69.0579 10.8817C68.9406 11.3173 68.8819 11.7864 68.8819 12.289V18.3204H65.5898V6.00628H68.6809V7.61466ZM89.3691 17.7927C90.3409 17.1728 91.1115 16.3602 91.6812 15.355L88.9419 13.9979C88.6571 14.5173 88.2634 14.9529 87.7607 15.3047C87.2749 15.6398 86.655 15.8073 85.9011 15.8073C85.5157 15.8073 85.1388 15.7571 84.7702 15.6565C84.4016 15.5393 84.0581 15.3633 83.7398 15.1288C83.4382 14.8775 83.1785 14.5759 82.9607 14.2241C82.7597 13.8555 82.6257 13.4199 82.5586 12.9173H91.8319C91.8319 12.8168 91.8403 12.7246 91.8571 12.6408C91.8571 12.5571 91.8655 12.4649 91.8822 12.3644V12.0628C91.8822 11.1414 91.7482 10.2869 91.4801 9.49948C91.212 8.71204 90.8183 8.03351 90.299 7.46387C89.7796 6.87749 89.1346 6.42513 88.3639 6.10681C87.5932 5.77173 86.7136 5.60419 85.7251 5.60419C84.7869 5.60419 83.9241 5.7801 83.1367 6.13194C82.366 6.48377 81.6958 6.96126 81.1262 7.5644C80.5566 8.15078 80.1126 8.84607 79.7943 9.65026C79.4759 10.4377 79.3168 11.2754 79.3168 12.1634C79.3168 13.1183 79.4759 13.9979 79.7943 14.8021C80.1293 15.5895 80.5901 16.2764 81.1764 16.8628C81.7628 17.4492 82.4497 17.9099 83.2372 18.245C84.0414 18.5633 84.9126 18.7225 85.8508 18.7225C87.2414 18.7225 88.4141 18.4126 89.3691 17.7927ZM88.4644 9.85131C88.5984 10.1194 88.6738 10.3623 88.6906 10.5801H82.7346C82.9524 9.85968 83.3293 9.29843 83.8655 8.89633C84.4016 8.49424 85.0215 8.29319 85.7251 8.29319C86.2278 8.29319 86.655 8.36859 87.0068 8.51937C87.3754 8.67016 87.677 8.86283 87.9115 9.09738C88.1628 9.33194 88.3471 9.58325 88.4644 9.85131ZM115.543 17.8429C115.978 18.2618 116.498 18.4712 117.101 18.4712C117.704 18.4712 118.215 18.2618 118.634 17.8429C119.052 17.4073 119.262 16.888 119.262 16.2848C119.262 15.6817 119.052 15.1707 118.634 14.7518C118.215 14.333 117.704 14.1236 117.101 14.1236C116.498 14.1236 115.978 14.333 115.543 14.7518C115.124 15.1707 114.914 15.6817 114.914 16.2848C114.914 16.888 115.124 17.4073 115.543 17.8429ZM100.373 15.0003L98.2618 18.4181H94.2408L98.5633 12.3616L94.2408 6.10402H98.111L100.423 9.62234L102.394 12.3616L100.373 15.0003Z" fill="#09D8CC"/>
</svg>
